<svg xmlns="http://www.w3.org/2000/svg" width="100" height="100">
<path style="fill:#0385fe; stroke:none;" d="M0 0L0 44C5.77758 40.6898 9.38951 34.7967 16 32.4823C30.2363 27.4979 47.3484 30.3191 62 30.9606C68.4925 31.2449 75.701 29.1368 82 30.5293C88.2653 31.9144 93.7336 35.681 100 37L100 0L0 0z"/>
<path style="fill:#20a3fd; stroke:none;" d="M0 71C15.2847 69.2929 7.54386 49.1648 13.858 40.1474C17.5207 34.9166 22.9592 38.0394 28.0008 37.7006C40.9459 36.8308 60.5582 32.4867 68 45L70 45C72.1144 40.2098 81.1708 32.4356 85.9583 39.4483C87.5475 41.7761 86.4692 45.3543 87.0177 48C88.4019 54.6767 92.903 58.7737 99 61C101.089 53.9325 101.089 43.0675 99 36C93.0975 35.4768 87.9135 31.3485 82 30.3287C75.8007 29.2596 69.2951 31.2359 63 30.9606C44.7283 30.1617 11.3511 23.8293 0.984568 44.2863C-2.41686 50.9985 0 63.5569 0 71z"/>
<path style="fill:#65c8fd; stroke:none;" d="M15 37L15 38C20.728 38.0202 23.6994 39.2071 28 43C32.3838 37.6801 37.0677 36.8326 42 42L43 42L44 38C48.9162 38.1601 51.125 39.3765 53 44C55.0776 42.1893 57.632 37.8954 60.8704 38.7515C66.067 40.1255 65.9881 60.987 63.0617 64.6435C57.2733 71.8763 34.5241 64.2509 27 64.7685C23.3123 65.0222 19.0058 68.7698 15.6034 65.3958C11.1837 61.0131 14 44.9452 14 39L13 39C11.116 49.148 12.7356 68.423 0 71L0 89L100 83L100 60C88.4568 59.7471 86.9505 46.9031 87 38L86 38C84.9359 42.5996 82.6791 47.1892 83.3395 52C83.8099 55.4266 87.2869 61.3014 85.6474 64.6281C84.1895 67.5862 74.9296 66.5124 73.564 63.8333C71.1352 59.068 72.97 32.4822 79 42L80 42L85 38L85 37C77.5106 37.2695 72.4497 36.7817 70 45L68 45C62.0446 30.8437 28.4153 36.2197 15 37z"/>
<path style="fill:#9ae2fd; stroke:none;" d="M14 38L14 41L15 41L14 38z"/>
<path style="fill:#f1f9fe; stroke:none;" d="M15 38C14.2506 42.0366 14.0016 45.8961 14 50L14.0008 58C14.0387 63.5006 18.556 69.9746 24.3966 64.2577C26.8269 61.8789 25.9998 57.0653 26 54C26.0006 44.421 26.2629 38.2412 15 38z"/>
<path style="fill:#9ae2fd; stroke:none;" d="M21 38L21 39L24 39L21 38M27 41L26 41L26 64C34.8773 67.1512 43.5506 66.8215 53 66.8951C55.8541 66.9173 60.918 67.7189 63.0617 65.3858C67.5036 60.5515 64.6927 43.7265 63 38L62 38L63 66C59.17 63.8881 59.0492 61.1605 59 57L58 57C56.8955 64.9866 51.4704 67.2238 50 58L49 58L48 66L44 66L44 41L41 39L40 39C40.6789 42.6438 41.2756 46.3186 41.7145 50C42.3178 55.0607 40.2634 71.6853 31.4336 64.2569C25.8816 59.5861 28.2515 43.1904 33 39L27 41z"/>
<path style="fill:#f1f9fe; stroke:none;" d="M33.108 38.7577C25.7875 41.6647 25.8751 70.3654 37.8557 65.3927C45.389 62.266 43.7957 34.5136 33.108 38.7577z"/>
<path style="fill:#9ae2fd; stroke:none;" d="M38 38L39 39L38 38M44 38L45 39L44 38z"/>
<path style="fill:#f1f9fe; stroke:none;" d="M44 66L48 66L49 58L50 58C50.9077 67.9692 57.2782 65.7471 58 57L59 57C59.0147 61.1504 58.6134 64.5441 63 66C63 60.0689 65.8204 44.2736 61.9761 39.6227C57.0107 33.6155 54.4339 50.7627 54 53C53.265 50.6756 52.8552 48.3944 52.3873 45.9985C51.7667 42.8203 46.6214 33.3942 44.3179 41.1481C42.1816 48.3391 44 58.5023 44 66z"/>
<path style="fill:#9ae2fd; stroke:none;" d="M50 38L51 39L50 38M57 38L58 39L57 38M74 38C72.3133 43.7062 69.7302 60.4684 74.0131 65.3789C78.4244 70.4364 86.9732 66.2771 86 60L85 60L86 66L82 66L78 57L78 66L74 66L74 38z"/>
<path style="fill:#f1f9fe; stroke:none;" d="M75 38L74 66L78 66L78 57L82 66L86 66L85 39C80.9029 40.2901 79.9668 42.9924 79 47L78 47L77 38L75 38z"/>
<path style="fill:#9ae2fd; stroke:none;" d="M77 38L78 39L77 38M82 38L82 39L85 41C85.951 38.4934 84.348 38.2942 82 38M24 39L25 40L24 39M51 39L51 42L52 42L51 39M56.3333 39.6667L56.6667 40.3333L56.3333 39.6667M81 39L82 40L81 39M25 40L26 41L25 40M78 40L78 47L79 47L78 40M80.3333 40.6667L80.6667 41.3333L80.3333 40.6667M35 41C31.6961 47.191 32.4007 56.2825 34 63L36 63C37.71 57.2149 38.7612 45.9646 35 41M22 62L22 42C15.7927 44.0602 15.8357 59.8324 22 62M52 42L53 53L54 53L56 42L52 42M84.3333 42.6667L84.6667 43.3333L84.3333 42.6667M83.3333 45.6667L83.6667 46.3333L83.3333 45.6667M82 48L82 53L83 53L82 48M83 53L83 56L84 56L83 53M84 56L84 59L85 59L84 56M25 64L26 65L25 64M14 65L15 66L14 65M23.6667 65.3333L24.3333 65.6667L23.6667 65.3333M15 66L15 67L23 67L15 66M0 89L0 100L100 100L100 83L0 89z"/>
</svg>